<?xml version="1.0" encoding="UTF-8"?>
<svg viewBox="-632.32 -359.74 1026.56 661.65" xmlns="http://www.w3.org/2000/svg">
    <g class="nad-vl-nodes">
        <g transform="translate(-94.84,-119.74)" id="0" class="nad-vl300to500">
            <circle r="27.50" id="3" class="nad-bus-0 nad-busnode"/>
        </g>
        <g transform="translate(-432.32,17.46)" id="4" class="nad-vl300to500">
            <circle r="27.50" id="7" class="nad-bus-0 nad-busnode"/>
        </g>
        <g transform="translate(194.24,101.91)" id="8" class="nad-boundary-node nad-vl300to500">
            <path d="M-16.733,21.823 A27.500,27.500 180.000 0 1 16.733,-21.823" id="9" class="nad-bus-0 nad-busnode"/>
        </g>
    </g>
    <g class="nad-branch-edges">
        <g id="10" class="nad-boundary-line-edge">
            <polyline class="nad-vl300to500 nad-edge-path" points="-73.02,-103.01 49.70,-8.92"/>
            <polyline class="nad-vl300to500 nad-edge-path" points="172.42,85.18 49.70,-8.92"/>
        </g>
        <g id="12" class="nad-hvdc-edge">
            <polyline class="nad-vl300to500 nad-edge-path" points="-120.31,-109.38 -263.58,-51.14"/>
            <polyline class="nad-vl300to500 nad-edge-path" points="-406.85,7.10 -263.58,-51.14"/>
            <g>
                <polyline points="-231.16,-64.32 -296.00,-37.96" class="nad-hvdc"/>
            </g>
        </g>
    </g>
    <g class="nad-edge-infos">
        <g id="11" transform="translate(-47.22,-83.23)">
            <path transform="rotate(127.48) translate(0.00,-12.67)" class="nad-active nad-arrow-out" d="M-10 10 H10 L0 -10z"/>
            <path transform="rotate(127.48) translate(0.00,12.67)" class="nad-reactive nad-arrow-out" d="M-10 10 H10 L0 -10z"/>
            <text transform="rotate(37.48)" class="nad-active" x="34.20">100</text>
            <text transform="rotate(37.48)" class="nad-reactive" x="-34.20" style="text-anchor:end">50</text>
        </g>
        <g id="13" transform="translate(-150.42,-97.14)">
            <path transform="rotate(-112.12) translate(0.00,-12.67)" class="nad-active nad-arrow-out" d="M-10 10 H10 L0 -10z"/>
            <path transform="rotate(-112.12) translate(0.00,12.67)" class="nad-reactive nad-arrow-out" d="M-10 10 H10 L0 -10z"/>
            <text transform="rotate(-22.12)" class="nad-active" x="-34.20" style="text-anchor:end">100</text>
            <text transform="rotate(-22.12)" class="nad-reactive" x="34.20">50</text>
        </g>
        <g id="14" transform="translate(-376.74,-5.14)">
            <path transform="rotate(67.88) translate(0.00,-12.67)" class="nad-active nad-arrow-out" d="M-10 10 H10 L0 -10z"/>
            <path transform="rotate(67.88) translate(0.00,12.67)" class="nad-reactive nad-arrow-out" d="M-10 10 H10 L0 -10z"/>
            <text transform="rotate(-22.12)" class="nad-active" x="34.20">300</text>
            <text transform="rotate(-22.12)" class="nad-reactive" x="-34.20" style="text-anchor:end">75</text>
        </g>
        <g id="15" transform="translate(-263.58,-51.14)">
            <path transform="rotate(-112.12) translate(0.00,-12.67)" class="nad-active nad-arrow-out" d="M-10 10 H10 L0 -10z"/>
            <path transform="rotate(-112.12) translate(0.00,12.67)" class="nad-reactive nad-arrow-out" d="M-10 10 H10 L0 -10z"/>
            <text transform="rotate(-22.12)" class="nad-active" x="-34.20" style="text-anchor:end">100</text>
            <text transform="rotate(-22.12)" class="nad-reactive" x="34.20">50</text>
        </g>
    </g>
    <g class="nad-text-edges">
        <polyline id="2" points="-65.17,-124.19 5.16,-134.74"/>
        <polyline id="6" points="-402.65,13.01 -332.32,2.46"/>
    </g>
    <g class="nad-text-nodes">
        <foreignObject id="1" y="-159.74" x="5.16" height="1" width="1">
            <div xmlns="http://www.w3.org/1999/xhtml" class="nad-vl300to500 nad-label-box">
                <div>vl</div>
                <div class="nad-bus-descr">
                    <span class="nad-bus-0 nad-legend-square"></span> kV / °</div>
            </div>
        </foreignObject>
        <foreignObject id="5" y="-22.54" x="-332.32" height="1" width="1">
            <div xmlns="http://www.w3.org/1999/xhtml" class="nad-vl300to500 nad-label-box">
                <div>vl2</div>
                <div class="nad-bus-descr">
                    <span class="nad-bus-0 nad-legend-square"></span> kV / °</div>
            </div>
        </foreignObject>
    </g>
</svg>
